<svg xmlns="http://www.w3.org/2000/svg" xmlns:xlink="http://www.w3.org/1999/xlink" width="1024" zoomAndPan="magnify" viewBox="0 0 768 767.999994" height="1024" preserveAspectRatio="xMidYMid meet" version="1.0"><defs><clipPath id="b39bcf64f8"><path d="M 144.0625 19.808594 L 623.933594 19.808594 L 623.933594 748.265625 L 144.0625 748.265625 Z M 144.0625 19.808594 " clip-rule="nonzero"/></clipPath></defs><g clip-path="url(#b39bcf64f8)"><path fill="#000000" d="M 240.035156 255.914062 C 240.035156 277.027344 243.710938 296.460938 251.078125 314.21875 C 258.429688 331.972656 268.589844 347.332031 281.546875 360.285156 C 294.507812 373.242188 309.691406 383.402344 327.132812 390.757812 C 344.570312 398.121094 363.367188 401.796875 383.519531 401.796875 C 403.675781 401.796875 422.460938 398.121094 439.910156 390.757812 C 457.339844 383.402344 472.613281 373.242188 485.738281 360.285156 C 498.847656 347.332031 509.164062 331.972656 516.683594 314.21875 C 524.203125 296.460938 527.964844 277.027344 527.964844 255.914062 C 527.964844 234.800781 524.203125 215.363281 516.683594 197.609375 C 509.164062 179.851562 498.847656 164.5 485.738281 151.535156 C 472.613281 138.582031 457.339844 128.433594 439.910156 121.070312 C 422.460938 113.710938 403.675781 110.035156 383.519531 110.035156 C 363.367188 110.035156 344.570312 113.710938 327.132812 121.070312 C 309.691406 128.433594 294.507812 138.582031 281.546875 151.535156 C 268.589844 164.5 258.429688 179.851562 251.078125 197.609375 C 243.710938 215.363281 240.035156 234.800781 240.035156 255.914062 Z M 538.042969 641.25 L 431.027344 641.25 L 431.027344 748.265625 L 338.414062 748.265625 L 338.414062 641.25 L 230.921875 641.25 L 230.921875 548.160156 L 338.414062 548.160156 L 338.414062 488.175781 C 310.894531 483.0625 285.300781 473.460938 261.632812 459.382812 C 237.957031 445.308594 217.402344 428.027344 199.96875 407.554688 C 182.527344 387.082031 168.847656 363.886719 158.9375 337.96875 C 149.019531 312.058594 144.0625 284.707031 144.0625 255.914062 C 144.0625 223.605469 150.457031 193.128906 163.257812 164.5 C 176.050781 135.871094 193.324219 110.835938 215.082031 89.394531 C 236.835938 67.96875 262.269531 51.003906 291.386719 38.527344 C 320.488281 26.050781 351.203125 19.8125 383.519531 19.8125 C 415.828125 19.8125 446.542969 26.050781 475.660156 38.527344 C 504.761719 51.003906 530.277344 67.96875 552.199219 89.394531 C 574.109375 110.835938 591.542969 135.871094 604.503906 164.5 C 617.460938 193.128906 623.9375 223.605469 623.9375 255.914062 C 623.9375 284.707031 618.972656 311.980469 609.0625 337.730469 C 599.144531 363.484375 585.550781 386.601562 568.269531 407.078125 C 550.996094 427.550781 530.601562 444.824219 507.089844 458.902344 C 483.578125 472.984375 458.21875 482.582031 431.027344 487.691406 L 431.027344 548.160156 L 538.042969 548.160156 L 538.042969 641.25 " fill-opacity="1" fill-rule="nonzero"/></g></svg>