<svg xmlns="http://www.w3.org/2000/svg" xmlns:xlink="http://www.w3.org/1999/xlink" width="1024" zoomAndPan="magnify" viewBox="0 0 768 767.999994" height="1024" preserveAspectRatio="xMidYMid meet" version="1.0"><defs><clipPath id="be8b337aa9"><path d="M 99 76.800781 L 691.859375 76.800781 L 691.859375 669 L 99 669 Z M 99 76.800781 " clip-rule="nonzero"/></clipPath></defs><g clip-path="url(#be8b337aa9)"><path fill="#000000" d="M 483.398438 76.800781 L 484.160156 141.21875 L 581.398438 141.21875 L 473.332031 249.285156 C 381.851562 179.996094 250.980469 187.050781 167.542969 270.488281 C 76.382812 361.648438 76.382812 509.457031 167.542969 600.621094 C 258.707031 691.785156 406.515625 691.785156 497.679688 600.621094 C 581.113281 517.1875 588.167969 386.316406 518.878906 294.832031 L 627.179688 186.527344 L 627.179688 284.238281 L 691.597656 285.238281 L 691.597656 76.800781 L 483.394531 76.800781 Z M 452.65625 555.605469 C 386.359375 621.90625 278.863281 621.90625 212.5625 555.605469 C 146.265625 489.304688 146.265625 381.8125 212.5625 315.511719 C 278.863281 249.210938 386.359375 249.210938 452.65625 315.511719 C 518.957031 381.8125 518.957031 489.304688 452.65625 555.605469 Z M 452.65625 555.605469 " fill-opacity="1" fill-rule="nonzero"/></g></svg>